<svg viewBox="0 0 800 550" xmlns="http://www.w3.org/2000/svg">
<defs>
  <filter id="mapShadow" x="-10%" y="-10%" width="120%" height="120%">
    <feDropShadow dx="0" dy="8" stdDeviation="15" flood-color="#000000" flood-opacity="0.04" />
  </filter>
</defs>
<g filter="url(#mapShadow)">
  <path class="map-region" id="Odessa" d="M340.594,465.301L352.515,453.933L354.755,452.763L345.075,461.955ZM401.88,400.303L393.159,402.058L387.639,405.049L384.758,404.688L382.598,407.573L384.598,412.052L379.638,420.17L378.118,424.12L371.077,435.585L365.557,440.793L360.676,447.369L355.316,452.153L355.156,447.776L353.395,452.509L348.755,450.423L347.075,455.254L345.555,453.424L346.115,458.302L344.594,456.524L340.354,457.388L343.154,461.55L337.314,465.301L335.074,460.028L335.554,454.593L333.233,451.695L331.553,460.383L330.913,468.745L335.554,468.543L331.553,473.299L333.713,476.078L337.234,474.057L338.354,483.799L336.194,489.994L334.033,490.397L334.593,486.873L333.633,482.236L330.033,479.159L319.072,476.028L314.911,477.341L312.511,479.512L303.31,483.85L301.63,486.42L295.39,483.799L294.989,489.491L286.029,488.434L275.068,483.648L272.267,476.28L269.227,474.916L272.347,471.124L281.708,472.388L284.188,467.429L281.468,462.513L285.229,458.708L285.949,455.915L290.109,454.898L290.109,452.662L293.149,451.034L292.749,444.618L293.949,443.139L302.83,440.589L302.35,434L305.391,428.987L301.79,424.12L302.35,421.197L301.15,414.726L302.35,411.486L311.951,406.131L313.951,408.449L313.631,417.809L317.312,415.24L318.992,410.611L320.832,414.006L325.073,409.582L326.033,413.389L328.753,414.212L331.313,417.398L336.434,410.508L342.354,418.784L345.475,416.781L352.755,416.679L354.995,413.595L352.595,413.595L348.915,408.706L345.395,407.367L344.594,405.203L346.915,403.554L346.115,400.871L346.995,392.915L345.955,388.619L342.194,385.666L338.274,385.407L335.634,382.399L329.553,379.752L331.553,373.204L329.233,370.394L327.473,371.955L326.113,368.571L329.233,365.81L328.913,360.958L330.513,357.72L329.473,355.107L326.113,354.165L322.912,357.982L320.672,353.171L318.112,351.497L315.072,347.045L312.031,347.516L310.031,341.327L312.831,336.126L313.471,329.231L315.312,326.649L312.591,324.486L315.232,319.101L313.071,318.203L310.271,312.119L307.471,312.543L305.551,315.083L302.59,314.818L298.67,310.53L306.751,305.017L306.591,301.991L309.311,300.982L315.712,304.911L319.792,304.804L324.032,303.053L326.833,304.38L334.913,304.38L334.273,299.282L339.154,297.049L344.354,298.219L345.715,295.825L348.995,295.825L352.835,300.982L362.116,301.513L363.156,303.743L358.996,305.6L358.756,310.583L362.356,314.183L363.396,321.319L366.597,324.275L367.797,333.759L370.197,335.495L375.238,334.548L378.678,335.232L379.958,337.703L383.718,334.706L384.198,337.966L387.639,340.697L386.119,348.145L389.719,358.19L395.24,359.862L400.2,358.452L401.16,360.541L398.68,364.35L403.4,365.393L407.001,369.613L405.161,376.064L403.08,377.934L395.16,379.233L395.96,382.918L400.76,387.583ZM354.835,416.679L354.675,421.145L357.636,424.581L362.596,426.375L365.397,429.499L367.877,434.818L371.397,431.546L367.877,428.219L366.837,423.658L364.196,422.171L362.916,416.679L362.196,420.786L358.356,415.291Z" fill="#F7F7F7" stroke="#E6E6E6" stroke-width="1.5" stroke-linejoin="round" />
  <path class="map-region" id="Kherson" d="M466.287,436.862L472.607,437.781L481.328,437.271L484.048,439.925ZM444.684,430.727L426.283,426.529L420.922,424.069L441.004,428.987ZM583.418,424.376L578.218,432.466L571.017,435.993L573.017,431.597L579.898,428.987L582.778,424.017L582.858,424.069ZM575.658,421.812L572.377,424.581L568.137,425.658L566.777,424.376L562.616,430.01L563.256,435.738L565.417,445.382L571.097,457.997L569.977,458.657L565.897,450.016L562.856,452.611L564.296,446.299L563.096,445.433L561.976,438.802L560.136,439.925L555.976,435.074L559.736,433.847L560.856,431.597L557.576,429.14L554.135,430.318L554.775,435.329L552.215,440.895L548.135,442.782L544.854,440.334L546.615,433.796L549.895,432.517L551.175,435.278L552.055,430.522L550.855,428.731L548.135,431.392L540.454,426.99L540.774,433.489L537.174,425.658L534.693,422.787L533.173,425.658L535.574,428.936L533.813,430.88L532.213,427.297L530.133,428.936L532.773,432.773L528.373,431.955L525.893,427.809L521.972,425.862L515.812,424.991L511.971,426.836L512.051,429.652L510.131,432.722L508.691,430.778L505.891,432.927L507.011,435.125L505.171,437.781L501.09,437.322L498.21,434.051L495.17,434.614L495.33,432.006L491.809,432.517L492.769,426.375L490.049,430.88L487.729,432.006L483.328,429.806L483.088,432.569L478.448,433.336L472.927,432.057L463.966,434L460.206,435.84L449.565,432.517L449.885,427.553L443.004,426.938L440.124,423.658L438.764,424.222L432.843,420.222L432.683,422.838L427.803,421.299L429.803,418.373L436.444,418.219L440.684,415.445L438.204,411.897L429.723,409.685L431.323,407.161L439.404,408.192L442.844,407.78L450.125,410.508L453.965,410.714L456.046,407.47L461.166,402.625L463.246,402.367L466.607,398.961L456.046,404.121L452.845,404.585L449.085,401.851L444.444,404.739L443.084,401.697L438.924,400.252L436.284,394.259L441.084,392.656L445.485,392.656L447.805,388.878L453.805,389.085L455.166,386.65L461.566,386.547L461.806,384.473L467.887,386.08L469.087,387.531L474.367,387.479L479.648,385.199L473.727,384.37L482.928,380.167L480.208,379.077L481.168,376.22L483.328,378.142L485.009,375.232L478.928,371.279L478.528,369.509L481.168,364.037L484.448,364.35L488.289,361.167L486.929,358.452L487.809,354.845L486.689,351.287L483.408,349.56L485.169,346.887L487.809,349.036L487.409,341.537L486.209,338.071L495.33,341.222L497.09,343.794L503.41,341.537L507.251,338.596L508.211,342.587L511.331,344.423L522.292,342.587L529.173,344.843L535.654,345L539.894,358.504L544.134,358.295L545.655,355.786L548.695,355.525L547.735,358.661L549.255,368.832L550.615,369.717L551.815,375.908L553.415,378.454L558.536,380.842L561.976,387.169L557.096,394.104L554.535,396.12L559.096,398.135L558.696,401.955L560.296,405.358L564.696,405.925L564.536,408.603L567.657,408.603L572.617,411.434L573.657,421.094Z" fill="#F7F7F7" stroke="#E6E6E6" stroke-width="1.5" stroke-linejoin="round" />
  <path class="map-region" id="Kiev_City" d="M386.519,134.664L382.438,140.075L382.838,144.697L386.679,150.702L384.198,152.146L384.278,154.977L381.318,153.756L380.998,157.029L375.958,156.697L378.118,164.451L376.678,166.773L377.878,172.904L375.158,174.283L373.157,168.487L372.197,162.071L370.277,161.407L367.477,154.145L363.876,149.702L363.236,146.867L359.716,146.478L357.396,148.424L358.836,137.566L360.676,135.892L361.076,131.201L363.956,129.189L368.357,129.133L370.197,133.883L373.477,137.12L373.637,134.888L377.798,135.278L380.998,131.872L381.878,128.798L386.199,130.81Z" fill="#F7F7F7" stroke="#E6E6E6" stroke-width="1.5" stroke-linejoin="round" />
  <path class="map-region" id="Zhytomyr" d="M245.545,70.741L247.705,72.619L250.985,69.261L252.105,62.762L253.865,61.734L257.546,65.272L263.546,65.842L269.707,59.164L274.187,64.701L275.708,68.178L282.108,64.872L287.149,66.127L288.429,72.562L291.629,74.098L292.749,76.997L293.789,71.139L298.75,65.785L302.75,65.5L306.671,61.049L310.271,61.049L314.831,68.691L314.591,72.334L317.872,78.985L320.432,78.758L322.192,80.347L321.792,84.318L316.752,88.68L318.672,97.161L320.192,95.184L326.193,100.321L325.313,107.59L322.432,106.858L327.233,115.348L326.433,120.342L330.113,121.632L331.073,125.776L326.033,133.994L327.553,135.836L326.913,140.52L324.752,146.644L328.513,145.81L330.513,148.09L332.033,153.146L335.714,157.362L335.634,163.123L337.394,166.829L334.433,168.984L334.753,174.614L337.314,178.858L332.753,184.582L324.192,189.582L323.392,195.287L326.193,195.397L324.592,199.231L316.672,203.663L304.91,203.39L302.75,196.493L304.99,193.752L302.19,189.802L300.75,184.032L297.47,183.372L291.949,189.417L285.709,189.912L279.468,188.484L277.708,190.57L272.267,189.747L261.546,191.778L254.505,191.778L245.305,189.088L242.104,182.217L240.024,181.116L241.704,178.748L240.264,174.725L245.465,172.959L243.544,169.757L244.664,163.51L242.904,157.972L237.704,159.69L233.943,154.589L226.183,147.812L229.463,142.08L224.582,137.622L226.503,134.72L224.502,132.263L228.103,123.929L226.103,119.838L226.663,113.158L224.742,106.07L229.063,102.351L231.943,95.466L235.944,89.303L234.743,83.694L237.224,83.127L238.344,74.212L241.944,77.565L242.024,71.993Z" fill="#F7F7F7" stroke="#E6E6E6" stroke-width="1.5" stroke-linejoin="round" />
  <path class="map-region" id="Sumy" d="M500.05,9.25L503.57,8.206L505.891,13.251L512.771,8.38L517.972,8.496L524.772,17.884L529.173,21.874L529.733,31.914L530.853,37.67L533.173,37.67L536.854,41.751L543.814,47.26L545.015,53.103L543.334,55.106L532.293,57.107L530.133,59.736L532.853,61.335L536.614,68.919L536.374,75.178L534.853,77.508L539.974,79.382L539.174,84.148L534.853,87.887L539.174,89.416L544.774,87.547L554.295,89.586L555.176,92.697L559.896,93.828L569.337,90.265L573.657,90.434L575.418,92.527L576.538,98.967L578.618,102.577L586.379,102.859L583.338,106.014L584.058,109.785L586.139,111.359L587.819,119.725L590.539,122.192L591.819,128.686L587.819,132.039L590.859,142.192L594.219,143.361L596.3,149.146L601.74,151.424L601.1,152.924L593.019,153.146L588.939,152.091L587.899,154.977L585.579,154.145L582.378,158.304L577.018,158.249L571.737,163.344L570.137,161.905L566.937,165.115L562.776,164.174L557.896,164.783L556.376,167.216L550.455,166.608L547.655,167.768L546.935,165.004L549.015,163.123L545.575,156.419L543.574,156.974L543.414,151.48L538.054,144.975L537.574,138.068L536.054,137.622L528.773,142.526L522.772,138.402L518.052,140.465L519.572,141.746L514.211,143.138L510.931,141.579L497.33,138.737L494.849,137.343L491.409,139.239L485.009,137.845L486.769,129.357L489.569,122.808L487.809,121.127L488.849,113.776L490.209,112.146L489.169,106.239L491.489,102.07L485.969,103.197L483.168,100.096L479.808,98.798L480.768,92.584L483.168,91.849L485.409,87.831L484.448,81.312L482.288,78.644L487.169,79.098L487.649,69.431L490.529,68.862L488.369,59.393L489.089,56.192L486.049,52.702L485.009,49.037L489.409,41.061L492.289,40.946L498.53,38.015L497.97,34.793L499.49,29.954L502.85,30.646L502.21,27.821L496.77,23.145L496.37,18.983L498.21,16.263Z" fill="#F7F7F7" stroke="#E6E6E6" stroke-width="1.5" stroke-linejoin="round" />
  <path class="map-region" id="Donets_k" d="M750.155,320.052L743.114,319.682L741.034,320.58L738.394,325.014L736.794,331.864L734.233,331.39L729.113,335.179L719.832,336.494L717.112,339.384L715.672,344.004L715.592,350.555L713.191,354.427L713.031,357.302L717.112,357.459L716.792,360.488L713.191,363.672L713.751,369.509L708.951,374.504L709.911,371.331L707.351,369.717L705.351,370.914L697.99,369.665L693.269,371.331L685.589,370.342L681.268,373.88L674.627,383.851L671.347,380.583L661.506,384.266L660.146,381.776L662.546,378.765L664.866,378.454L665.027,374.4L660.226,371.955L658.306,367.373L653.745,364.298L657.186,362.159L656.946,356.361L662.946,356.571L664.226,352.544L667.107,353.642L669.587,346.521L665.747,346.783L659.266,340.119L655.026,340.172L650.785,336.284L649.025,336.914L644.224,324.486L641.344,324.328L640.944,320.844L639.104,316.828L643.504,315.718L641.024,312.49L641.584,305.282L644.944,304.698L652.225,308.411L655.026,306.025L654.145,299.388L656.546,297.102L655.586,290.927L651.985,289.649L651.265,282.98L655.026,274.693L654.705,272.069L651.585,272.122L650.305,275.067L648.625,272.926L650.465,270.836L647.585,268.799L646.065,258.595L652.065,258.864L655.506,257.142L660.386,259.778L659.746,257.411L664.466,254.343L667.827,254.935L669.587,250.463L673.747,248.522L672.707,244.959L676.388,240.041L686.469,233.816L685.749,231.594L682.068,230.943L684.068,228.122L688.309,228.068L693.989,229.695L697.35,227.85L701.27,230.021L699.51,232.949L702.63,234.574L707.271,233.491L705.911,238.851L707.591,243.339L704.63,246.633L713.511,248.684L714.391,253.158L716.392,254.235L717.752,262.465L715.192,266.224L715.992,274.746L718.072,275.817L717.592,279.935L722.152,281.431L725.433,286.716L722.712,288.742L724.632,292.472L729.033,291.94L732.153,299.494L740.314,303.106L739.674,306.767L742.394,309.153L749.755,310.106L751.035,316.035Z" fill="#F7F7F7" stroke="#E6E6E6" stroke-width="1.5" stroke-linejoin="round" />
  <path class="map-region" id="Dnipropetrovs_k" d="M647.585,268.799L650.465,270.836L648.625,272.926L650.305,275.067L651.585,272.122L654.705,272.069L655.026,274.693L651.265,282.98L651.985,289.649L655.586,290.927L656.546,297.102L654.145,299.388L655.026,306.025L652.225,308.411L644.944,304.698L641.584,305.282L641.024,312.49L643.504,315.718L639.104,316.828L640.944,320.844L629.103,322.85L624.862,321.583L624.462,319.576L620.142,321.425L620.542,314.501L617.982,313.76L616.462,309.842L614.141,308.411L612.861,304.433L606.941,306.078L600.94,302.097L595.26,304.911L586.139,303.637L581.898,301.832L572.297,302.628L568.457,305.123L563.976,302.734L562.776,309.736L567.257,314.342L563.096,316.722L563.016,319.312L566.777,321.953L565.977,326.385L568.537,327.808L566.617,337.545L567.257,341.537L563.656,341.852L552.535,339.069L546.455,342.01L535.654,345L529.173,344.843L522.292,342.587L511.331,344.423L508.211,342.587L507.251,338.596L503.41,341.537L497.09,343.794L495.33,341.222L486.209,338.071L482.528,337.493L482.928,332.812L481.568,329.705L485.969,328.441L484.928,325.436L485.889,317.727L483.648,315.453L483.808,312.807L484.848,308.835L488.929,305.123L492.129,304.486L492.849,299.175L494.529,303.425L498.05,298.325L499.81,299.069L505.171,294.389L503.81,281.004L502.21,275.335L514.291,269.389L518.692,265.902L515.812,263.916L509.091,262.412L507.011,258.918L511.491,256.658L516.452,256.766L518.852,259.778L523.092,252.619L528.453,256.55L533.893,258.111L537.254,260.692L539.734,258.111L540.614,254.343L538.934,251.056L540.054,245.985L545.735,238.527L553.735,234.954L558.856,233.653L561.496,231.702L567.737,231.106L570.297,232.461L577.578,233.166L587.099,242.096L591.259,245.121L597.02,245.283L605.821,247.982L612.381,245.175L616.382,250.302L613.741,253.05L618.622,255.097L622.942,259.886L621.262,262.197L627.423,267.351L628.863,272.176L627.503,274.639L630.543,275.121L635.584,267.887L641.024,270.247Z" fill="#F7F7F7" stroke="#E6E6E6" stroke-width="1.5" stroke-linejoin="round" />
  <path class="map-region" id="Kharkiv" d="M697.35,227.85L693.989,229.695L688.309,228.068L684.068,228.122L682.068,230.943L685.749,231.594L686.469,233.816L676.388,240.041L672.707,244.959L673.747,248.522L669.587,250.463L667.827,254.935L664.466,254.343L659.746,257.411L660.386,259.778L655.506,257.142L652.065,258.864L646.065,258.595L647.585,268.799L641.024,270.247L635.584,267.887L630.543,275.121L627.503,274.639L628.863,272.176L627.423,267.351L621.262,262.197L622.942,259.886L618.622,255.097L613.741,253.05L616.382,250.302L612.381,245.175L605.821,247.982L597.02,245.283L591.259,245.121L587.099,242.096L577.578,233.166L570.297,232.461L569.017,227.362L572.137,222.037L579.338,223.723L582.698,222.418L587.019,216.977L584.938,211.799L591.819,209.562L588.619,206.833L592.139,205.412L589.659,200.162L589.659,196.822L587.019,198.027L581.578,195.561L579.498,190.735L579.578,186.836L575.578,185.737L571.417,182.877L566.057,180.951L564.056,175.221L567.097,171.414L566.937,165.115L570.137,161.905L571.737,163.344L577.018,158.249L582.378,158.304L585.579,154.145L587.899,154.977L588.939,152.091L593.019,153.146L601.1,152.924L601.74,151.424L608.221,145.866L620.062,146.033L622.942,148.646L627.343,155.698L632.623,153.978L639.264,156.697L638.944,159.357L641.744,161.13L645.665,157.196L655.986,151.758L662.066,152.035L668.467,150.091L672.467,146.422L679.108,145.754L681.108,151.647L686.389,155.088L685.909,160.354L692.069,169.757L700.39,175L705.191,181.501L707.671,185.627L704.39,187.165L706.071,189.637L701.99,194.849L704.23,195.287L704.23,198.848L701.67,202.952L702.55,208.198L698.15,215.179L699.11,222.255L700.87,224.266Z" fill="#F7F7F7" stroke="#E6E6E6" stroke-width="1.5" stroke-linejoin="round" />
  <path class="map-region" id="Luhans_k" d="M750.155,320.052L751.035,316.035L749.755,310.106L742.394,309.153L739.674,306.767L740.314,303.106L732.153,299.494L729.033,291.94L724.632,292.472L722.712,288.742L725.433,286.716L722.152,281.431L717.592,279.935L718.072,275.817L715.992,274.746L715.192,266.224L717.752,262.465L716.392,254.235L714.391,253.158L713.511,248.684L704.63,246.633L707.591,243.339L705.911,238.851L707.271,233.491L702.63,234.574L699.51,232.949L701.27,230.021L697.35,227.85L700.87,224.266L699.11,222.255L698.15,215.179L702.55,208.198L701.67,202.952L704.23,198.848L704.23,195.287L701.99,194.849L706.071,189.637L704.39,187.165L707.671,185.627L705.191,181.501L711.511,179.354L711.911,171.083L717.512,171.028L719.432,175.772L726.233,178.803L733.673,177.757L734.633,181.171L741.914,184.472L745.755,188.758L749.995,188.484L753.675,184.582L756.636,184.967L759.116,191.339L763.116,194.026L768.237,192.436L773.277,194.246L776.158,201.804L784.158,206.669L789.119,205.248L791.759,202.569L798.08,203.39L797.84,206.505L795.28,208.198L794.719,212.563L800,220.895L799.2,226.873L790.799,235.116L789.359,240.312L778.798,242.204L778.398,245.553L782.158,250.571L788.319,251.649L790.719,253.535L793.279,251.164L795.36,252.404L793.759,256.174L789.999,257.949L785.119,256.012L779.758,260.638L776.638,271.372L784.478,271.586L786.479,273.461L785.919,277.315L789.599,285.489L784.798,290.022L787.839,291.993L792.639,292.366L791.119,295.719L788.159,298.378L785.919,302.575L785.919,308.146L782.238,309.524L783.838,312.437L782.238,321.636L779.598,323.009L775.198,321.795L765.917,322.27L762.716,320.739L752.635,321.689Z" fill="#F7F7F7" stroke="#E6E6E6" stroke-width="1.5" stroke-linejoin="round" />
  <path class="map-region" id="Poltava" d="M485.009,137.845L491.409,139.239L494.849,137.343L497.33,138.737L510.931,141.579L514.211,143.138L519.572,141.746L518.052,140.465L522.772,138.402L528.773,142.526L536.054,137.622L537.574,138.068L538.054,144.975L543.414,151.48L543.574,156.974L545.575,156.419L549.015,163.123L546.935,165.004L547.655,167.768L550.455,166.608L556.376,167.216L557.896,164.783L562.776,164.174L566.937,165.115L567.097,171.414L564.056,175.221L566.057,180.951L571.417,182.877L575.578,185.737L579.578,186.836L579.498,190.735L581.578,195.561L587.019,198.027L589.659,196.822L589.659,200.162L592.139,205.412L588.619,206.833L591.819,209.562L584.938,211.799L587.019,216.977L582.698,222.418L579.338,223.723L572.137,222.037L569.017,227.362L570.297,232.461L567.737,231.106L561.496,231.702L558.856,233.653L553.735,234.954L545.735,238.527L540.054,245.985L538.934,251.056L540.614,254.343L539.734,258.111L537.254,260.692L533.893,258.111L528.453,256.55L523.092,252.619L516.772,248.791L513.091,249.924L512.211,252.35L508.771,248.791L506.371,250.086L502.53,247.497L498.93,247.551L495.49,243.879L497.57,241.393L495.49,239.122L491.329,238.743L488.609,234.737L483.968,231.214L472.927,225.787L472.927,220.95L467.887,210.763L471.327,206.341L470.927,202.679L468.607,197.863L463.806,195.89L463.086,191.942L456.846,188.484L454.045,183.372L456.046,182.217L456.046,176.93L452.445,171.69L449.245,170.862L447.725,165.059L441.004,158.748L441.964,155.421L444.044,150.98L447.805,151.424L450.685,148.257L454.525,146.811L459.326,147.312L460.206,149.535L470.207,150.425L477.088,147.423L482.688,141.913Z" fill="#F7F7F7" stroke="#E6E6E6" stroke-width="1.5" stroke-linejoin="round" />
  <path class="map-region" id="Zaporizhzhya" d="M640.944,320.844L641.344,324.328L644.224,324.486L649.025,336.914L650.785,336.284L655.026,340.172L659.266,340.119L665.747,346.783L669.587,346.521L667.107,353.642L664.226,352.544L662.946,356.571L656.946,356.361L657.186,362.159L653.745,364.298L658.306,367.373L660.226,371.955L665.027,374.4L664.866,378.454L662.546,378.765L660.146,381.776L661.506,384.266L654.705,388.93L650.465,397.515L651.025,394.052L646.305,390.483L638.704,391.88L631.903,395.138L628.943,398.341L627.743,401.697L623.822,397.67L618.142,397.618L611.021,398.755L605.261,402.109L598.94,408.655L593.659,411.332L587.899,417.089L583.418,424.376L582.858,424.069L582.778,424.017L586.139,419.144L582.938,418.219L583.658,412.669L578.458,409.067L580.458,414.263L575.658,421.812L573.657,421.094L572.617,411.434L567.657,408.603L564.536,408.603L564.696,405.925L560.296,405.358L558.696,401.955L559.096,398.135L554.535,396.12L557.096,394.104L561.976,387.169L558.536,380.842L553.415,378.454L551.815,375.908L550.615,369.717L549.255,368.832L547.735,358.661L548.695,355.525L545.655,355.786L544.134,358.295L539.894,358.504L535.654,345L546.455,342.01L552.535,339.069L563.656,341.852L567.257,341.537L566.617,337.545L568.537,327.808L565.977,326.385L566.777,321.953L563.016,319.312L563.096,316.722L567.257,314.342L562.776,309.736L563.976,302.734L568.457,305.123L572.297,302.628L581.898,301.832L586.139,303.637L595.26,304.911L600.94,302.097L606.941,306.078L612.861,304.433L614.141,308.411L616.462,309.842L617.982,313.76L620.542,314.501L620.142,321.425L624.462,319.576L624.862,321.583L629.103,322.85Z" fill="#F7F7F7" stroke="#E6E6E6" stroke-width="1.5" stroke-linejoin="round" />
  <path class="map-region" id="Sevastopol" d="M514.611,541.606L510.931,539.87L507.971,535.45L505.251,535.798L499.09,531.273L501.57,528.685L507.651,527.789L505.091,525.946L506.531,522.207L505.171,517.466L507.571,513.269L508.051,515.368L512.211,517.017L512.851,519.463L509.411,521.459L509.971,525.199L513.731,524.85L515.572,527.54L513.891,530.228L518.052,533.511L520.132,539.473Z" fill="#F7F7F7" stroke="#E6E6E6" stroke-width="1.5" stroke-linejoin="round" />
  <path class="map-region" id="Crimea" d="M571.097,457.997L573.017,461.753L585.819,480.673L592.379,485.261L601.9,483.245L609.101,474.461L609.741,478.603L614.781,481.177L621.502,474.916L630.543,475.219L633.663,476.533L637.184,476.129L639.024,478.25L641.344,477.089L643.744,481.883L637.744,482.186L633.903,489.592L633.823,495.928L634.943,499.794L627.743,501.149L625.343,503.506L617.502,500.948L615.102,504.158L608.621,504.458L605.261,499.894L599.18,496.782L591.899,497.635L588.699,501.851L590.379,503.305L582.378,506.613L580.538,509.367L577.898,510.218L574.617,516.917L571.257,514.369L566.937,515.318L560.296,515.268L553.815,518.714L547.415,520.91L543.494,527.092L540.934,532.517L538.854,532.367L533.173,538.38L524.772,542.549L520.052,541.408L514.611,541.606L520.132,539.473L518.052,533.511L513.891,530.228L515.572,527.54L513.731,524.85L509.971,525.199L509.411,521.459L512.851,519.463L512.211,517.017L508.051,515.368L507.571,513.269L509.811,508.265L507.251,498.138L500.61,492.409L493.809,494.169L489.969,491.604L485.729,486.923L477.808,481.732L471.167,481.127L467.327,483.9L460.686,482.589L459.246,478.25L461.246,475.118L466.447,471.124L471.487,468.391L474.607,468.543L476.448,464.288L479.488,462.158L489.489,457.489L489.809,454.441L492.529,456.626L498.85,453.678L503.65,450.016L506.931,450.474L509.731,448.235L512.931,449.609L513.091,446.146L516.772,445.229L511.011,442.017L510.131,432.722L512.051,429.652L511.971,426.836L514.771,431.392L517.172,432.927L517.972,429.345L520.052,430.522L519.492,433.336L521.572,436.504L525.813,439.568L526.213,435.789L528.293,435.125L534.053,440.793L531.653,441.66L533.493,444.72L535.334,443.904L534.853,440.13L532.053,436.913L536.774,438.802L538.934,437.73L540.294,440.895L542.134,439.058L544.854,443.496L543.414,445.484L545.175,448.744L545.575,445.841L548.375,448.591L552.215,444.567L554.455,444.057L553.335,448.235L550.935,449.405L547.095,455.203L550.855,453.882L555.336,449.711L559.976,446.961L559.816,449.762L556.456,450.881L555.336,454.339L558.776,452.611L560.536,454.441L558.376,458.251L565.337,457.794L563.896,459.571L566.617,461.803L569.497,461.803L573.977,468.594L574.937,475.169L571.497,476.937L573.337,480.37L576.458,483.094L579.658,482.841L586.539,486.067L589.019,488.233L591.179,486.42L586.059,482.589L571.017,461.397L569.977,458.657Z" fill="#F7F7F7" stroke="#E6E6E6" stroke-width="1.5" stroke-linejoin="round" />
  <path class="map-region" id="Chernihiv" d="M373.797,88.34L374.837,83.978L377.398,81.652L376.598,72.847L372.837,66.184L371.957,62.59L373.877,61.106L374.437,55.678L376.358,55.506L378.918,49.209L378.518,47.145L382.438,41.349L385.159,40.027L389.239,34.218L391.719,28.744L399.48,28.628L404.68,30.934L407.001,27.186L414.601,25.628L422.362,27.129L430.203,26.609L432.683,27.936L433.083,31.568L438.604,30.531L442.124,31.222L448.205,28.34L451.485,23.954L452.445,18.346L454.205,16.321L453.565,10.932L461.326,11.28L470.047,15.916L475.408,15.163L479.008,16.263L483.648,12.208L485.409,12.15L491.009,7.451L500.05,9.25L498.21,16.263L496.37,18.983L496.77,23.145L502.21,27.821L502.85,30.646L499.49,29.954L497.97,34.793L498.53,38.015L492.289,40.946L489.409,41.061L485.009,49.037L486.049,52.702L489.089,56.192L488.369,59.393L490.529,68.862L487.649,69.431L487.169,79.098L482.288,78.644L484.448,81.312L485.409,87.831L483.168,91.849L480.768,92.584L479.808,98.798L483.168,100.096L485.969,103.197L491.489,102.07L489.169,106.239L490.209,112.146L488.849,113.776L487.809,121.127L489.569,122.808L486.769,129.357L485.009,137.845L482.688,141.913L477.088,147.423L470.207,150.425L460.206,149.535L459.326,147.312L454.525,146.811L450.685,148.257L447.805,151.424L444.044,150.98L440.844,148.646L441.484,146.756L438.364,145.588L436.684,141.913L439.324,140.186L438.844,137.12L436.204,137.008L431.163,131.872L428.763,132.766L426.683,136.785L420.922,139.183L414.041,140.465L405.721,139.071L405.001,136.45L401.48,134.385L403.32,131.145L400.52,125.44L397.24,121.744L386.679,123.873L381.878,122.36L383.798,116.527L378.198,113.045L378.598,107.928L376.918,105.451L372.277,104.887L371.637,102.126L372.677,93.262L372.037,89.529Z" fill="#F7F7F7" stroke="#E6E6E6" stroke-width="1.5" stroke-linejoin="round" />
  <path class="map-region" id="Rivne" d="M245.545,70.741L242.024,71.993L241.944,77.565L238.344,74.212L237.224,83.127L234.743,83.694L235.944,89.303L231.943,95.466L229.063,102.351L224.742,106.07L226.663,113.158L226.103,119.838L228.103,123.929L224.502,132.263L226.503,134.72L224.582,137.622L221.542,134.776L214.981,139.183L212.021,138.347L204.74,142.86L199.86,150.591L192.259,157.972L189.379,158.027L185.059,163.067L182.018,164.727L180.578,160.742L181.458,157.14L178.978,158.415L174.257,156.863L169.217,156.918L163.136,162.846L158.016,163.233L152.095,165.502L147.375,163.953L148.015,167.989L143.614,174.283L136.254,168.653L134.653,160.022L135.934,155.31L130.093,154.755L135.934,149.535L131.373,142.916L134.653,140.632L133.373,136.896L139.294,137.733L140.814,136.394L140.334,132.486L143.534,132.877L143.134,128.07L146.815,129.692L154.015,126.056L157.136,126.28L159.056,129.077L164.416,131.034L165.777,126.952L165.777,120.791L169.297,117.594L172.097,112.764L171.137,108.378L175.618,107.084L175.698,105.113L172.737,100.265L169.297,100.096L169.457,97.387L172.897,96.596L174.097,92.414L168.497,88.51L163.056,81.936L163.696,78.246L159.856,78.019L157.856,79.836L151.855,80.12L151.855,67.495L154.015,64.188L150.015,61.734L150.495,53.904L155.136,48.234L156.256,41.865L151.535,39.912L161.296,39.337L175.218,41.291L179.378,44.449L189.699,44.908L191.379,48.12L201.14,48.464L209.541,52.13L212.501,52.702L216.902,51.042L223.862,52.359L224.982,58.879L228.343,59.164L227.303,63.161L233.223,63.503L237.144,61.163L246.025,63.275L247.305,65.1Z" fill="#F7F7F7" stroke="#E6E6E6" stroke-width="1.5" stroke-linejoin="round" />
  <path class="map-region" id="Chernivtsi" d="M238.424,279.079L234.663,282.766L231.143,281.484L226.903,285.649L223.782,286.449L217.142,284.101L217.542,286.556L213.461,287.196L209.061,284.315L206.101,286.183L206.501,290.981L201.78,288.583L199.06,293.271L185.059,296.464L184.338,302.204L179.298,310.954L177.218,311.96L168.017,312.648L160.656,314.871L138.814,317.251L136.974,318.572L132.653,325.7L128.013,328.704L124.092,329.442L126.413,321.953L124.332,314.025L124.332,309.63L126.813,303.902L133.293,298.644L133.293,295.4L135.934,293.431L140.254,287.889L147.055,283.888L153.215,284.368L154.095,275.014L152.335,269.067L155.456,265.258L160.736,268.37L162.416,265.795L167.697,271.318L170.977,268.906L174.417,268.638L173.937,272.444L178.258,274.532L188.499,276.031L192.499,274.693L196.74,280.042L198.58,277.689L203.06,277.368L198.9,274.479L199.7,273.033L203.7,274.853L204.5,271.211L208.421,270.407L208.341,273.14L210.901,274.318L213.541,271.747L220.982,273.247L222.502,271.694L226.983,272.497L226.343,269.282L230.263,270.461L232.423,268.531L235.384,270.354Z" fill="#F7F7F7" stroke="#E6E6E6" stroke-width="1.5" stroke-linejoin="round" />
  <path class="map-region" id="Ivano_Frankivs_k" d="M155.456,265.258L152.335,269.067L154.095,275.014L153.215,284.368L147.055,283.888L140.254,287.889L135.934,293.431L133.293,295.4L133.293,298.644L126.813,303.902L124.332,309.63L124.332,314.025L126.413,321.953L124.092,329.442L121.852,329.178L118.092,323.484L112.251,320.158L111.691,317.463L108.171,314.66L111.211,307.403L106.731,301.619L106.891,296.411L104.81,292.845L96.41,284.688L94.249,287.036L89.289,285.596L88.969,275.388L78.728,278.224L78.248,273.89L73.127,270.3L73.127,267.941L68.407,266.868L65.687,263.54L62.166,262.197L64.006,254.774L62.806,251.649L64.326,245.067L66.967,242.798L68.727,237.931L72.007,235.82L78.648,236.307L85.849,233.87L89.849,234.358L102.41,230.401L101.37,227.579L98.97,227.47L98.49,223.016L101.69,218.12L99.93,216.813L102.81,208.416L108.251,207.87L114.251,210.108L119.852,220.515L120.012,225.516L121.932,229.858L120.572,231.919L121.532,236.037L125.773,235.928L126.893,239.663L122.732,239.554L126.253,245.121L130.173,245.445L132.973,247.281L132.973,250.409L138.094,248.144L137.294,254.181L141.774,254.235L138.334,255.851L138.414,258.756L142.814,253.697L146.335,253.697L149.695,256.712L155.136,259.724Z" fill="#F7F7F7" stroke="#E6E6E6" stroke-width="1.5" stroke-linejoin="round" />
  <path class="map-region" id="Khmel_nyts_kyy" d="M232.423,268.531L230.263,270.461L226.343,269.282L226.983,272.497L222.502,271.694L220.982,273.247L213.541,271.747L210.901,274.318L208.341,273.14L208.421,270.407L204.5,271.211L203.7,274.853L199.7,273.033L198.9,274.479L203.06,277.368L198.58,277.689L196.74,280.042L192.499,274.693L188.499,276.031L188.019,272.122L185.219,270.139L185.619,267.619L182.098,264.828L183.058,256.174L181.138,253.912L181.538,250.517L180.018,246.741L181.458,243.555L180.418,240.744L181.938,238.148L180.418,231.702L182.338,227.199L181.778,216.596L180.498,215.343L178.178,208.416L180.898,204.975L182.818,198.465L180.738,195.178L182.018,190.9L179.858,187.495L178.338,178.142L182.018,174.725L180.258,173.346L180.978,168.984L183.698,167.105L182.018,164.727L185.059,163.067L189.379,158.027L192.259,157.972L199.86,150.591L204.74,142.86L212.021,138.347L214.981,139.183L221.542,134.776L224.582,137.622L229.463,142.08L226.183,147.812L233.943,154.589L237.704,159.69L242.904,157.972L244.664,163.51L243.544,169.757L245.465,172.959L240.264,174.725L241.704,178.748L240.024,181.116L242.104,182.217L245.305,189.088L254.505,191.778L249.305,197.698L251.865,199.505L248.505,207.761L249.865,211.799L248.825,213.653L252.665,214.362L251.865,217.358L254.905,224.755L254.025,226.602L255.466,232.569L250.025,235.712L243.384,232.732L241.224,235.279L238.264,234.954L233.703,242.15L232.503,247.982L234.823,258.595L233.623,259.67Z" fill="#F7F7F7" stroke="#E6E6E6" stroke-width="1.5" stroke-linejoin="round" />
  <path class="map-region" id="L_viv" d="M130.093,154.755L135.934,155.31L134.653,160.022L136.254,168.653L143.614,174.283L146.255,178.308L144.814,182.877L137.934,186.616L131.613,187.825L132.013,193.039L128.413,194.465L124.972,200.873L115.212,205.795L114.251,210.108L108.251,207.87L102.81,208.416L99.93,216.813L101.69,218.12L98.49,223.016L98.97,227.47L101.37,227.579L102.41,230.401L89.849,234.358L85.849,233.87L78.648,236.307L72.007,235.82L68.727,237.931L66.967,242.798L64.326,245.067L62.806,251.649L64.006,254.774L62.166,262.197L52.165,260.423L46.405,257.68L43.124,252.242L38.964,253.32L33.683,247.982L34.163,244.095L32.563,242.69L31.923,237.823L25.443,232.082L24.322,232.624L26.883,224.864L26.243,218.664L24.322,215.125L22.482,207.597L28.563,197.205L30.803,196.055L42.964,178.142L57.846,161.794L63.606,157.362L67.687,152.702L68.807,149.702L71.687,148.201L79.688,148.146L82.088,147.145L83.288,141.022L87.689,137.622L87.689,131.425L90.169,130.698L93.929,134.832L99.69,133.436L102.17,137.064L105.051,137.343L106.731,139.74L103.13,143.25L105.211,146.756L107.371,144.808L117.132,151.591L123.292,151.091L124.252,149.591L130.093,152.035Z" fill="#F7F7F7" stroke="#E6E6E6" stroke-width="1.5" stroke-linejoin="round" />
  <path class="map-region" id="Ternopil_" d="M155.456,265.258L155.136,259.724L149.695,256.712L146.335,253.697L142.814,253.697L138.414,258.756L138.334,255.851L141.774,254.235L137.294,254.181L138.094,248.144L132.973,250.409L132.973,247.281L130.173,245.445L126.253,245.121L122.732,239.554L126.893,239.663L125.773,235.928L121.532,236.037L120.572,231.919L121.932,229.858L120.012,225.516L119.852,220.515L114.251,210.108L115.212,205.795L124.972,200.873L128.413,194.465L132.013,193.039L131.613,187.825L137.934,186.616L144.814,182.877L146.255,178.308L143.614,174.283L148.015,167.989L147.375,163.953L152.095,165.502L158.016,163.233L163.136,162.846L169.217,156.918L174.257,156.863L178.978,158.415L181.458,157.14L180.578,160.742L182.018,164.727L183.698,167.105L180.978,168.984L180.258,173.346L182.018,174.725L178.338,178.142L179.858,187.495L182.018,190.9L180.738,195.178L182.818,198.465L180.898,204.975L178.178,208.416L180.498,215.343L181.778,216.596L182.338,227.199L180.418,231.702L181.938,238.148L180.418,240.744L181.458,243.555L180.018,246.741L181.538,250.517L181.138,253.912L183.058,256.174L182.098,264.828L185.619,267.619L185.219,270.139L188.019,272.122L188.499,276.031L178.258,274.532L173.937,272.444L174.417,268.638L170.977,268.906L167.697,271.318L162.416,265.795L160.736,268.37Z" fill="#F7F7F7" stroke="#E6E6E6" stroke-width="1.5" stroke-linejoin="round" />
  <path class="map-region" id="Transcarpathia" d="M62.166,262.197L65.687,263.54L68.407,266.868L73.127,267.941L73.127,270.3L78.248,273.89L78.728,278.224L88.969,275.388L89.289,285.596L94.249,287.036L96.41,284.688L104.81,292.845L106.891,296.411L106.731,301.619L111.211,307.403L108.171,314.66L101.85,313.654L93.049,317.357L81.848,313.019L77.448,314.818L73.047,311.378L63.446,310.106L59.846,312.384L54.485,310.954L48.725,305.282L43.764,304.433L41.284,310.053L39.364,311.537L35.764,310.159L33.043,314.025L31.043,311.907L32.403,308.676L30.963,305.706L27.203,302.788L20.722,303.796L18.802,298.75L15.522,294.442L9.921,294.389L7.761,290.981L6.161,283.674L0,283.567L0.16,273.89L0.88,271.479L8.401,263.755L10.321,257.411L10.161,254.128L12.321,251.11L14.001,245.445L17.202,244.041L18.002,238.635L19.842,238.04L22.562,240.636L27.603,240.528L32.003,243.933L32.563,242.69L34.163,244.095L33.683,247.982L38.964,253.32L43.124,252.242L46.405,257.68L52.165,260.423Z" fill="#F7F7F7" stroke="#E6E6E6" stroke-width="1.5" stroke-linejoin="round" />
  <path class="map-region" id="Volyn" d="M130.093,154.755L130.093,152.035L124.252,149.591L123.292,151.091L117.132,151.591L107.371,144.808L105.211,146.756L103.13,143.25L106.731,139.74L105.051,137.343L102.17,137.064L99.69,133.436L93.929,134.832L90.169,130.698L87.689,131.425L86.409,125.608L81.768,121.183L81.528,117.762L88.649,116.808L88.649,114.731L81.928,109.897L78.968,105L77.288,95.862L71.447,90.151L66.567,81.482L69.447,76.826L65.767,70.229L66.327,67.096L64.886,62.476L66.407,60.821L71.767,59.736L77.768,61.449L82.008,63.846L88.649,57.85L93.689,54.362L96.01,47.948L100.25,42.784L111.291,41.98L114.891,42.669L127.373,40.602L135.374,37.727L142.894,39.797L151.535,39.912L156.256,41.865L155.136,48.234L150.495,53.904L150.015,61.734L154.015,64.188L151.855,67.495L151.855,80.12L157.856,79.836L159.856,78.019L163.696,78.246L163.056,81.936L168.497,88.51L174.097,92.414L172.897,96.596L169.457,97.387L169.297,100.096L172.737,100.265L175.698,105.113L175.618,107.084L171.137,108.378L172.097,112.764L169.297,117.594L165.777,120.791L165.777,126.952L164.416,131.034L159.056,129.077L157.136,126.28L154.015,126.056L146.815,129.692L143.134,128.07L143.534,132.877L140.334,132.486L140.814,136.394L139.294,137.733L133.373,136.896L134.653,140.632L131.373,142.916L135.934,149.535Z" fill="#F7F7F7" stroke="#E6E6E6" stroke-width="1.5" stroke-linejoin="round" />
  <path class="map-region" id="Cherkasy" d="M441.004,158.748L447.725,165.059L449.245,170.862L452.445,171.69L456.046,176.93L456.046,182.217L454.045,183.372L456.846,188.484L463.086,191.942L463.806,195.89L468.607,197.863L470.927,202.679L471.327,206.341L467.887,210.763L472.927,220.95L472.927,225.787L471.247,230.78L472.927,233.599L473.487,238.527L475.408,243.501L472.607,246.039L468.207,244.473L466.047,247.227L460.766,248.252L457.966,239.771L453.965,240.095L452.605,237.444L448.605,240.041L444.524,244.905L443.884,249.277L439.244,248.414L433.243,252.889L429.403,248.738L424.122,247.335L422.442,249.115L417.722,248.684L416.922,254.72L414.041,259.67L408.281,262.197L407.241,260.907L401.48,260.369L395.96,261.928L390.759,259.993L385.239,260.369L380.278,259.402L376.438,262.304L375.798,266.17L373.077,269.228L374.597,272.872L370.597,273.622L367.557,272.444L366.197,275.174L360.436,278.17L356.916,277.957L352.515,280.255L347.395,278.812L350.115,274.693L347.315,267.083L342.914,263.916L344.114,261.337L339.074,259.133L336.354,249.115L332.993,246.957L334.673,244.419L331.233,241.988L336.034,234.845L335.714,228.176L339.314,231.973L343.394,231.431L345.635,226.873L350.915,224.266L354.115,224.864L355.636,221.222L356.836,224.375L364.676,226.059L366.437,227.416L368.197,220.188L371.077,221.548L375.238,221.222L376.598,219.209L381.558,221.766L387.639,219.045L389.399,220.025L391.159,215.67L397,210.163L400.44,205.74L399.24,201.694L401.16,198.082L402.2,192.217L401.48,187.715L402.92,185.297L408.441,182.327L412.601,181.721L414.681,185.242L418.842,184.692L424.922,185.792L429.323,177.922L429.243,175.386L432.283,173.125L431.163,168.653L434.123,165.059L437.724,162.791L438.044,158.027Z" fill="#F7F7F7" stroke="#E6E6E6" stroke-width="1.5" stroke-linejoin="round" />
  <path class="map-region" id="Kirovohrad" d="M352.515,280.255L356.916,277.957L360.436,278.17L366.197,275.174L367.557,272.444L370.597,273.622L374.597,272.872L373.077,269.228L375.798,266.17L376.438,262.304L380.278,259.402L385.239,260.369L390.759,259.993L395.96,261.928L401.48,260.369L407.241,260.907L408.281,262.197L414.041,259.67L416.922,254.72L417.722,248.684L422.442,249.115L424.122,247.335L429.403,248.738L433.243,252.889L439.244,248.414L443.884,249.277L444.524,244.905L448.605,240.041L452.605,237.444L453.965,240.095L457.966,239.771L460.766,248.252L466.047,247.227L468.207,244.473L472.607,246.039L475.408,243.501L473.487,238.527L472.927,233.599L471.247,230.78L472.927,225.787L483.968,231.214L488.609,234.737L491.329,238.743L495.49,239.122L497.57,241.393L495.49,243.879L498.93,247.551L502.53,247.497L506.371,250.086L508.771,248.791L512.211,252.35L513.091,249.924L516.772,248.791L523.092,252.619L518.852,259.778L516.452,256.766L511.491,256.658L507.011,258.918L509.091,262.412L515.812,263.916L518.692,265.902L514.291,269.389L502.21,275.335L503.81,281.004L505.171,294.389L499.81,299.069L498.05,298.325L494.529,303.425L492.849,299.175L492.129,304.486L488.929,305.123L484.848,308.835L483.808,312.807L481.328,307.669L477.088,308.623L474.127,312.807L472.447,311.272L468.207,313.548L469.567,316.352L467.247,317.304L468.127,320.897L466.287,323.8L458.606,325.014L451.165,322.428L448.285,322.375L444.044,327.229L438.924,323.167L432.043,324.117L430.763,320.739L431.963,318.467L429.963,314.183L428.123,314.183L425.003,309.418L427.643,307.403L427.243,304.433L420.842,302.628L415.722,306.078L415.642,302.628L411.881,303.372L404.68,302.522L401.72,296.73L393.799,296.517L389.639,300.026L386.439,298.538L380.358,298.484L376.918,300.769L371.397,299.654L364.516,299.654L362.116,301.513L352.835,300.982L348.995,295.825L345.715,295.825L344.354,298.219L339.154,297.049L339.714,293.856L337.554,292.579L339.234,287.409L342.914,282.766L345.235,281.805L346.515,285.542Z" fill="#F7F7F7" stroke="#E6E6E6" stroke-width="1.5" stroke-linejoin="round" />
  <path class="map-region" id="Kiev" d="M441.004,158.748L438.044,158.027L437.724,162.791L434.123,165.059L431.163,168.653L432.283,173.125L429.243,175.386L429.323,177.922L424.922,185.792L418.842,184.692L414.681,185.242L412.601,181.721L408.441,182.327L402.92,185.297L401.48,187.715L402.2,192.217L401.16,198.082L399.24,201.694L400.44,205.74L397,210.163L391.159,215.67L389.399,220.025L387.639,219.045L381.558,221.766L376.598,219.209L375.238,221.222L371.077,221.548L368.197,220.188L366.437,227.416L364.676,226.059L356.836,224.375L355.636,221.222L354.115,224.864L350.915,224.266L345.635,226.873L343.394,231.431L339.314,231.973L335.714,228.176L333.473,227.09L330.913,222.799L328.353,221.983L326.913,218.719L329.633,215.506L328.753,209.945L329.713,207.106L326.833,204.592L327.553,200.436L324.592,199.231L326.193,195.397L323.392,195.287L324.192,189.582L332.753,184.582L337.314,178.858L334.753,174.614L334.433,168.984L337.394,166.829L335.634,163.123L335.714,157.362L332.033,153.146L330.513,148.09L328.513,145.81L324.752,146.644L326.913,140.52L327.553,135.836L326.033,133.994L331.073,125.776L330.113,121.632L326.433,120.342L327.233,115.348L322.432,106.858L325.313,107.59L326.193,100.321L320.192,95.184L318.672,97.161L316.752,88.68L321.792,84.318L322.192,80.347L320.432,78.758L325.473,78.19L327.153,74.439L332.193,71.026L335.874,71.196L337.554,74.268L342.274,74.78L349.475,71.31L355.716,71.139L358.276,72.448L363.796,77.906L364.916,83.864L373.797,88.34L372.037,89.529L372.677,93.262L371.637,102.126L372.277,104.887L376.918,105.451L378.598,107.928L378.198,113.045L383.798,116.527L381.878,122.36L386.679,123.873L397.24,121.744L400.52,125.44L403.32,131.145L401.48,134.385L405.001,136.45L405.721,139.071L414.041,140.465L420.922,139.183L426.683,136.785L428.763,132.766L431.163,131.872L436.204,137.008L438.844,137.12L439.324,140.186L436.684,141.913L438.364,145.588L441.484,146.756L440.844,148.646L444.044,150.98L441.964,155.421ZM386.519,134.664L386.199,130.81L381.878,128.798L380.998,131.872L377.798,135.278L373.637,134.888L373.477,137.12L370.197,133.883L368.357,129.133L363.956,129.189L361.076,131.201L360.676,135.892L358.836,137.566L357.396,148.424L359.716,146.478L363.236,146.867L363.876,149.702L367.477,154.145L370.277,161.407L372.197,162.071L373.157,168.487L375.158,174.283L377.878,172.904L376.678,166.773L378.118,164.451L375.958,156.697L380.998,157.029L381.318,153.756L384.278,154.977L384.198,152.146L386.679,150.702L382.838,144.697L382.438,140.075Z" fill="#F7F7F7" stroke="#E6E6E6" stroke-width="1.5" stroke-linejoin="round" />
  <path class="map-region" id="Mykolayiv" d="M362.116,301.513L364.516,299.654L371.397,299.654L376.918,300.769L380.358,298.484L386.439,298.538L389.639,300.026L393.799,296.517L401.72,296.73L404.68,302.522L411.881,303.372L415.642,302.628L415.722,306.078L420.842,302.628L427.243,304.433L427.643,307.403L425.003,309.418L428.123,314.183L429.963,314.183L431.963,318.467L430.763,320.739L432.043,324.117L438.924,323.167L444.044,327.229L448.285,322.375L451.165,322.428L458.606,325.014L466.287,323.8L468.127,320.897L467.247,317.304L469.567,316.352L468.207,313.548L472.447,311.272L474.127,312.807L477.088,308.623L481.328,307.669L483.808,312.807L483.648,315.453L485.889,317.727L484.928,325.436L485.969,328.441L481.568,329.705L482.928,332.812L482.528,337.493L486.209,338.071L487.409,341.537L487.809,349.036L485.169,346.887L483.408,349.56L486.689,351.287L487.809,354.845L486.929,358.452L488.289,361.167L484.448,364.35L481.168,364.037L478.528,369.509L478.928,371.279L485.009,375.232L483.328,378.142L481.168,376.22L480.208,379.077L482.928,380.167L473.727,384.37L479.648,385.199L474.367,387.479L469.087,387.531L467.887,386.08L461.806,384.473L461.566,386.547L455.166,386.65L453.805,389.085L447.805,388.878L445.485,392.656L441.084,392.656L436.284,394.259L435.004,389.137L437.964,382.97L437.644,380.063L435.164,378.298L436.844,375.596L432.603,375.232L432.683,368.467L429.723,363.359L429.643,368.259L432.363,370.134L430.603,375.7L435.564,376.272L433.403,379.856L436.444,380.323L435.484,385.355L433.323,386.391L431.883,390.483L433.723,393.225L433.803,398.135L431.643,400.303L427.723,400.355L423.402,398.703L419.242,401.078L414.841,399.168L421.002,388.308L416.602,392.604L413.081,389.189L415.962,394.363L412.521,399.684L408.441,402.058L401.88,400.303L400.76,387.583L395.96,382.918L395.16,379.233L403.08,377.934L405.161,376.064L407.001,369.613L403.4,365.393L398.68,364.35L401.16,360.541L400.2,358.452L395.24,359.862L389.719,358.19L386.119,348.145L387.639,340.697L384.198,337.966L383.718,334.706L379.958,337.703L378.678,335.232L375.238,334.548L370.197,335.495L367.797,333.759L366.597,324.275L363.396,321.319L362.356,314.183L358.756,310.583L358.996,305.6L363.156,303.743ZM429.723,409.685L425.723,408.552L423.002,410.405L416.762,404.43L419.322,405.667L427.083,405.1L431.323,407.161Z" fill="#F7F7F7" stroke="#E6E6E6" stroke-width="1.5" stroke-linejoin="round" />
  <path class="map-region" id="Vinnytsya" d="M352.515,280.255L346.515,285.542L345.235,281.805L342.914,282.766L339.234,287.409L337.554,292.579L339.714,293.856L339.154,297.049L334.273,299.282L334.913,304.38L326.833,304.38L324.032,303.053L319.792,304.804L315.712,304.911L309.311,300.982L306.591,301.991L306.751,305.017L298.67,310.53L295.87,303.106L285.869,300.238L283.388,300.663L282.108,306.184L277.628,299.335L275.868,301.885L274.667,299.707L276.748,295.187L273.467,294.814L269.227,296.464L268.347,293.324L263.866,294.282L264.746,291.62L262.826,289.116L257.066,287.943L254.425,283.941L249.305,280.416L243.864,280.523L242.824,278.277L238.424,279.079L235.384,270.354L232.423,268.531L233.623,259.67L234.823,258.595L232.503,247.982L233.703,242.15L238.264,234.954L241.224,235.279L243.384,232.732L250.025,235.712L255.466,232.569L254.025,226.602L254.905,224.755L251.865,217.358L252.665,214.362L248.825,213.653L249.865,211.799L248.505,207.761L251.865,199.505L249.305,197.698L254.505,191.778L261.546,191.778L272.267,189.747L277.708,190.57L279.468,188.484L285.709,189.912L291.949,189.417L297.47,183.372L300.75,184.032L302.19,189.802L304.99,193.752L302.75,196.493L304.91,203.39L316.672,203.663L324.592,199.231L327.553,200.436L326.833,204.592L329.713,207.106L328.753,209.945L329.633,215.506L326.913,218.719L328.353,221.983L330.913,222.799L333.473,227.09L335.714,228.176L336.034,234.845L331.233,241.988L334.673,244.419L332.993,246.957L336.354,249.115L339.074,259.133L344.114,261.337L342.914,263.916L347.315,267.083L350.115,274.693L347.395,278.812Z" fill="#F7F7F7" stroke="#E6E6E6" stroke-width="1.5" stroke-linejoin="round" />
</g>
<g class="map-lines">
  <path class="map-line" id="line-lviv" d="M 372.3617572630508,143.99878957253986 A 436.89361342172367,436.89361342172367 0 0,1 84.18299562257494,186.2692545031091" fill="none" stroke="#E9254F" stroke-width="1" stroke-dasharray="1000" stroke-dashoffset="1000" opacity="0.3" style="animation-delay: 0.5s" />
  <path class="map-line" id="line-odesa" d="M 372.3617572630508,143.99878957253986 A 398.8493728082834,398.8493728082834 0 0,1 381.6456781302279,409.7362473257458" fill="none" stroke="#E9254F" stroke-width="1" stroke-dasharray="1000" stroke-dashoffset="1000" opacity="0.3" style="animation-delay: 1s" />
  <path class="map-line" id="line-kharkiv" d="M 372.3617572630508,143.99878957253986 A 382.85836031010615,382.85836031010615 0 0,1 625.628183596604,175.66923122025173" fill="none" stroke="#E9254F" stroke-width="1" stroke-dasharray="1000" stroke-dashoffset="1000" opacity="0.3" style="animation-delay: 1.5s" />
  <path class="map-line" id="line-dnipro" d="M 372.3617572630508,143.99878957253986 A 363.3170490826977,363.3170490826977 0 0,1 573.0755110779087,279.57288324770207" fill="none" stroke="#E9254F" stroke-width="1" stroke-dasharray="1000" stroke-dashoffset="1000" opacity="0.3" style="animation-delay: 2s" />
</g>
<g class="map-dots">

  <g class="map-dot-group" transform="translate(372.3617572630508, 143.99878957253986)" style="animation-delay: 0s">
    <circle class="map-dot-pulse" cx="0" cy="0" r="4" fill="#E9254F" />
    <circle class="map-dot-core" cx="0" cy="0" r="3" fill="#E9254F" />
  </g>

  <g class="map-dot-group" transform="translate(84.18299562257494, 186.2692545031091)" style="animation-delay: 0.5s">
    <circle class="map-dot-pulse" cx="0" cy="0" r="4" fill="#E9254F" />
    <circle class="map-dot-core" cx="0" cy="0" r="3" fill="#E9254F" />
  </g>

  <g class="map-dot-group" transform="translate(381.6456781302279, 409.7362473257458)" style="animation-delay: 1s">
    <circle class="map-dot-pulse" cx="0" cy="0" r="4" fill="#E9254F" />
    <circle class="map-dot-core" cx="0" cy="0" r="3" fill="#E9254F" />
  </g>

  <g class="map-dot-group" transform="translate(625.628183596604, 175.66923122025173)" style="animation-delay: 1.5s">
    <circle class="map-dot-pulse" cx="0" cy="0" r="4" fill="#E9254F" />
    <circle class="map-dot-core" cx="0" cy="0" r="3" fill="#E9254F" />
  </g>

  <g class="map-dot-group" transform="translate(573.0755110779087, 279.57288324770207)" style="animation-delay: 2s">
    <circle class="map-dot-pulse" cx="0" cy="0" r="4" fill="#E9254F" />
    <circle class="map-dot-core" cx="0" cy="0" r="3" fill="#E9254F" />
  </g>
</g>
</svg>